<mxfile host="app.diagrams.net" agent="Mozilla/5.0 (Macintosh; Intel Mac OS X 10.15; rv:141.0) Gecko/20100101 Firefox/141.0" version="27.1.4">
  <diagram name="Page-1" id="sFoUcNze-BzdGA4uHaWY">
    <mxGraphModel dx="1306" dy="687" grid="1" gridSize="10" guides="1" tooltips="1" connect="1" arrows="1" fold="1" page="1" pageScale="1" pageWidth="3300" pageHeight="4681" math="0" shadow="0">
      <root>
        <mxCell id="0" />
        <mxCell id="1" parent="0" />
        <mxCell id="q2PjjPB55p4gRlyGQz1B-14" value="" style="rounded=0;whiteSpace=wrap;html=1;" vertex="1" parent="1">
          <mxGeometry x="280" y="160" width="880" height="520" as="geometry" />
        </mxCell>
        <mxCell id="q2PjjPB55p4gRlyGQz1B-1" value="" style="rounded=0;whiteSpace=wrap;html=1;" vertex="1" parent="1">
          <mxGeometry x="360" y="200" width="600" height="440" as="geometry" />
        </mxCell>
        <mxCell id="q2PjjPB55p4gRlyGQz1B-3" value="" style="endArrow=none;html=1;rounded=0;entryX=0.998;entryY=0.892;entryDx=0;entryDy=0;entryPerimeter=0;exitX=0;exitY=0.897;exitDx=0;exitDy=0;exitPerimeter=0;" edge="1" parent="1">
          <mxGeometry width="50" height="50" relative="1" as="geometry">
            <mxPoint x="361.2" y="561.8000000000001" as="sourcePoint" />
            <mxPoint x="960.0000000000002" y="559.9999999999999" as="targetPoint" />
          </mxGeometry>
        </mxCell>
        <mxCell id="q2PjjPB55p4gRlyGQz1B-5" value="" style="endArrow=none;html=1;rounded=0;entryX=0.998;entryY=0.892;entryDx=0;entryDy=0;entryPerimeter=0;exitX=0;exitY=0.897;exitDx=0;exitDy=0;exitPerimeter=0;" edge="1" parent="1">
          <mxGeometry width="50" height="50" relative="1" as="geometry">
            <mxPoint x="360" y="281.80000000000007" as="sourcePoint" />
            <mxPoint x="958.8000000000002" y="279.9999999999999" as="targetPoint" />
          </mxGeometry>
        </mxCell>
        <mxCell id="q2PjjPB55p4gRlyGQz1B-6" value="" style="endArrow=none;html=1;rounded=0;" edge="1" parent="1">
          <mxGeometry width="50" height="50" relative="1" as="geometry">
            <mxPoint x="870" y="561" as="sourcePoint" />
            <mxPoint x="870" y="280" as="targetPoint" />
          </mxGeometry>
        </mxCell>
        <mxCell id="q2PjjPB55p4gRlyGQz1B-7" value="" style="endArrow=none;html=1;rounded=0;" edge="1" parent="1">
          <mxGeometry width="50" height="50" relative="1" as="geometry">
            <mxPoint x="780" y="560.5" as="sourcePoint" />
            <mxPoint x="780" y="279.5" as="targetPoint" />
          </mxGeometry>
        </mxCell>
        <mxCell id="q2PjjPB55p4gRlyGQz1B-8" value="Header" style="text;html=1;align=center;verticalAlign=middle;whiteSpace=wrap;rounded=0;fontSize=24;" vertex="1" parent="1">
          <mxGeometry x="630" y="230" width="60" height="30" as="geometry" />
        </mxCell>
        <mxCell id="q2PjjPB55p4gRlyGQz1B-9" value="Footer" style="text;html=1;align=center;verticalAlign=middle;whiteSpace=wrap;rounded=0;fontSize=24;" vertex="1" parent="1">
          <mxGeometry x="630" y="590" width="60" height="30" as="geometry" />
        </mxCell>
        <mxCell id="q2PjjPB55p4gRlyGQz1B-10" value="Main content" style="text;html=1;align=center;verticalAlign=middle;whiteSpace=wrap;rounded=0;fontSize=24;" vertex="1" parent="1">
          <mxGeometry x="540" y="405" width="60" height="30" as="geometry" />
        </mxCell>
        <mxCell id="q2PjjPB55p4gRlyGQz1B-11" value="&lt;div&gt;1 or 2 sidebars,&lt;/div&gt;&lt;div&gt;depending on page&lt;/div&gt;" style="text;html=1;align=center;verticalAlign=middle;whiteSpace=wrap;rounded=0;fontSize=24;" vertex="1" parent="1">
          <mxGeometry x="970" y="405" width="160" height="30" as="geometry" />
        </mxCell>
      </root>
    </mxGraphModel>
  </diagram>
</mxfile>
